<?xml version="1.0" standalone="no"?>
<svg viewBox="0 0 200 200" xmlns="http://www.w3.org/2000/svg">
  <path fill="#019AFF" d="M47.1,-77.3C58.4,-66,63.1,-48.5,69.3,-32.4C75.6,-16.2,83.5,-1.6,78.7,9.2C73.8,19.9,56.3,26.8,44.4,36C32.6,45.3,26.4,57.1,15.8,65.6C5.2,74.1,-9.8,79.4,-22.6,76.1C-35.4,72.7,-45.8,60.8,-57.9,49C-70,37.2,-83.7,25.6,-86.1,12.1C-88.5,-1.4,-79.5,-16.8,-68.6,-27.4C-57.7,-38,-44.8,-43.8,-33,-54.9C-21.3,-66.1,-10.6,-82.5,3.6,-88.2C17.9,-93.8,35.8,-88.7,47.1,-77.3Z" transform="translate(100 100)" />
</svg>


<svg viewBox="0 0 200 200" xmlns="http://www.w3.org/2000/svg">
  <path fill="#019AFF" d="M47.1,-77.3C58.4,-66,63.1,-48.5,69.3,-32.4C75.6,-16.2,83.5,-1.6,78.7,9.2C73.8,19.9,56.3,26.8,44.4,36C32.6,45.3,26.4,57.1,15.8,65.6C5.2,74.1,-9.8,79.4,-22.6,76.1C-35.4,72.7,-45.8,60.8,-57.9,49C-70,37.2,-83.7,25.6,-86.1,12.1C-88.5,-1.4,-79.5,-16.8,-68.6,-27.4C-57.7,-38,-44.8,-43.8,-33,-54.9C-21.3,-66.1,-10.6,-82.5,3.6,-88.2C17.9,-93.8,35.8,-88.7,47.1,-77.3Z" transform="translate(100 100)" />
</svg>